<svg xmlns="http://www.w3.org/2000/svg" width="1280" height="720" viewBox="0 0 1280 720" role="img" aria-label="Generic code editor screen">
  <defs>
    <linearGradient id="bg" x1="0" x2="1" y1="0" y2="1">
      <stop offset="0%" stop-color="#090f1d"/>
      <stop offset="100%" stop-color="#111c37"/>
    </linearGradient>
    <linearGradient id="topbar" x1="0" x2="1" y1="0" y2="0">
      <stop offset="0%" stop-color="#1a2444"/>
      <stop offset="100%" stop-color="#21315d"/>
    </linearGradient>
    <linearGradient id="editor" x1="0" x2="0" y1="0" y2="1">
      <stop offset="0%" stop-color="#101a31"/>
      <stop offset="100%" stop-color="#0b142a"/>
    </linearGradient>
  </defs>

  <rect width="1280" height="720" fill="url(#bg)"/>
  <rect x="0" y="0" width="1280" height="42" fill="url(#topbar)"/>
  <rect x="0" y="42" width="64" height="678" fill="#121a31"/>
  <rect x="64" y="42" width="230" height="678" fill="#10182d"/>
  <rect x="294" y="42" width="986" height="678" fill="url(#editor)"/>

  <circle cx="18" cy="19" r="6" fill="#f55f71"/>
  <circle cx="38" cy="19" r="6" fill="#f9c74f"/>
  <circle cx="58" cy="19" r="6" fill="#74c69d"/>

  <rect x="84" y="64" width="146" height="11" rx="5" fill="#2d3c65"/>
  <rect x="84" y="91" width="184" height="8" rx="4" fill="#24365c"/>
  <rect x="84" y="114" width="170" height="8" rx="4" fill="#24365c"/>
  <rect x="84" y="137" width="144" height="8" rx="4" fill="#24365c"/>
  <rect x="84" y="160" width="166" height="8" rx="4" fill="#24365c"/>

  <rect x="324" y="74" width="16" height="16" rx="3" fill="#7f8fb4"/>
  <rect x="350" y="79" width="250" height="7" rx="3" fill="#5f6f95"/>
  <rect x="610" y="79" width="132" height="7" rx="3" fill="#4d5e86"/>

  <rect x="318" y="108" width="28" height="510" fill="#101a34"/>
  <rect x="352" y="108" width="904" height="510" rx="8" fill="#0e1730" stroke="#1e3567"/>

  <rect x="374" y="133" width="282" height="10" rx="4" fill="#4cc9f0"/>
  <rect x="374" y="156" width="128" height="10" rx="4" fill="#ff7aa2"/>
  <rect x="510" y="156" width="188" height="10" rx="4" fill="#85f4c7"/>
  <rect x="706" y="156" width="90" height="10" rx="4" fill="#ffd166"/>

  <rect x="374" y="196" width="178" height="10" rx="4" fill="#85f4c7"/>
  <rect x="560" y="196" width="216" height="10" rx="4" fill="#6f92ff"/>
  <rect x="784" y="196" width="148" height="10" rx="4" fill="#ff7aa2"/>

  <rect x="374" y="236" width="302" height="10" rx="4" fill="#6f92ff"/>
  <rect x="684" y="236" width="234" height="10" rx="4" fill="#4cc9f0"/>

  <rect x="374" y="276" width="138" height="10" rx="4" fill="#ffd166"/>
  <rect x="520" y="276" width="270" height="10" rx="4" fill="#85f4c7"/>
  <rect x="798" y="276" width="172" height="10" rx="4" fill="#6f92ff"/>

  <rect x="374" y="316" width="186" height="10" rx="4" fill="#ff7aa2"/>
  <rect x="568" y="316" width="242" height="10" rx="4" fill="#4cc9f0"/>
  <rect x="818" y="316" width="120" height="10" rx="4" fill="#85f4c7"/>

  <rect x="374" y="356" width="255" height="10" rx="4" fill="#6f92ff"/>
  <rect x="637" y="356" width="220" height="10" rx="4" fill="#ffd166"/>

  <rect x="374" y="396" width="142" height="10" rx="4" fill="#85f4c7"/>
  <rect x="524" y="396" width="274" height="10" rx="4" fill="#ff7aa2"/>
  <rect x="806" y="396" width="176" height="10" rx="4" fill="#4cc9f0"/>

  <rect x="374" y="436" width="328" height="10" rx="4" fill="#85f4c7"/>
  <rect x="710" y="436" width="146" height="10" rx="4" fill="#6f92ff"/>
  <rect x="864" y="436" width="116" height="10" rx="4" fill="#ff7aa2"/>

  <rect x="374" y="500" width="560" height="38" rx="6" fill="#101a34" stroke="#243d78"/>
  <rect x="374" y="554" width="372" height="10" rx="4" fill="#445c93"/>
  <rect x="756" y="554" width="180" height="10" rx="4" fill="#2f4372"/>

  <rect x="0" y="690" width="1280" height="30" fill="#0d1730"/>
  <rect x="24" y="699" width="146" height="11" rx="5" fill="#2d4b8f"/>
  <rect x="1114" y="699" width="146" height="11" rx="5" fill="#20457c"/>
</svg>
